<svg width="15.956543" height="15.950745" viewBox="0 0 15.9565 15.9507" fill="none" xmlns="http://www.w3.org/2000/svg" xmlns:xlink="http://www.w3.org/1999/xlink">
	<desc>
			Created with Pixso.
	</desc>
	<defs/>
	<path id="Path" d="M15.95 8.15C15.95 7.61 15.91 7.07 15.81 6.53L8.13 6.53L8.13 9.6L12.53 9.6C12.35 10.59 11.76 11.47 10.9 12.03L10.9 14.02L13.53 14.02C15.07 12.63 15.95 10.58 15.95 8.15Z" fill="#4285F4" fill-opacity="1.000000" fill-rule="nonzero"/>
	<path id="Path" d="M8.13 15.95C10.33 15.95 12.18 15.24 13.53 14.02L10.91 12.03C10.18 12.51 9.24 12.79 8.14 12.79C6.01 12.79 4.21 11.39 3.57 9.5L0.86 9.5L0.86 11.55C2.24 14.25 5.06 15.95 8.13 15.95Z" fill="#4285F4" fill-opacity="1.000000" fill-rule="nonzero"/>
	<path id="Path" d="M3.56 9.5C3.22 8.51 3.22 7.44 3.56 6.45L3.56 4.39L0.86 4.39C-0.29 6.64 -0.29 9.3 0.86 11.55L3.56 9.5Z" fill="#4285F4" fill-opacity="1.000000" fill-rule="nonzero"/>
	<path id="Path" d="M8.13 3.15C9.29 3.13 10.42 3.56 11.26 4.35L13.58 2.07C12.11 0.72 10.16 -0.03 8.13 0C5.06 0 2.24 1.7 0.86 4.39L3.56 6.45C4.21 4.56 6.01 3.15 8.13 3.15Z" fill="#4285F4" fill-opacity="1.000000" fill-rule="nonzero"/>
</svg>
