<svg width="16.000000" height="16.000000" viewBox="0 0 16 16" fill="none" xmlns="http://www.w3.org/2000/svg" xmlns:xlink="http://www.w3.org/1999/xlink">
	<desc>
			Created with Pixso.
	</desc>
	<defs>
		<clipPath id="clip17_982">
			<rect id="Icons/Medium/Outlined/arrow-right" rx="-0.500000" width="15.000000" height="15.000000" transform="translate(0.500000 0.500000)" fill="white" fill-opacity="0"/>
		</clipPath>
	</defs>
	<rect id="Icons/Medium/Outlined/arrow-right" rx="-0.500000" width="15.000000" height="15.000000" transform="translate(0.500000 0.500000)" fill="#FFFFFF" fill-opacity="0"/>
	<g clip-path="url(#clip17_982)">
		<path id="Vector" d="M9.34 13.3C9.47 13.3 9.59 13.25 9.68 13.16L14.4 8.44C14.59 8.25 14.59 7.95 14.4 7.76L9.68 3.05C9.49 2.86 9.18 2.86 8.99 3.05C8.8 3.24 8.8 3.55 8.99 3.74L12.87 7.62L1.94 7.62C1.67 7.62 1.45 7.84 1.45 8.11C1.45 8.37 1.67 8.59 1.94 8.59L12.88 8.59L12.84 8.62L9 12.47C8.9 12.57 8.85 12.69 8.85 12.82C8.85 12.95 8.9 13.07 9 13.16C9.09 13.26 9.21 13.3 9.34 13.3L9.34 13.3Z" fill="#FFFFFF" fill-opacity="1.000000" fill-rule="nonzero"/>
	</g>
</svg>
