<svg width="42.000000" height="42.000000" viewBox="0 0 42 42" fill="none" xmlns="http://www.w3.org/2000/svg" xmlns:xlink="http://www.w3.org/1999/xlink">
	<desc>
			Created with Pixso.
	</desc>
	<defs/>
	<path id="Vector" d="M8.98 3.77C7.47 4.82 6.11 6.07 4.94 7.46C9.75 7.02 15.88 7.75 22.98 11.3C30.57 15.09 36.69 15.22 40.94 14.4C40.55 13.23 40.07 12.11 39.49 11.04C34.62 11.56 28.38 10.88 21.11 7.24C16.49 4.93 12.41 3.98 8.98 3.77ZM36.65 6.99C32.8 2.7 27.21 0 21 0C19.17 0 17.4 0.23 15.71 0.67C18 1.29 20.43 2.2 22.98 3.48C28.31 6.15 32.91 7 36.65 6.99ZM41.85 18.5C36.71 19.52 29.61 19.31 21.11 15.06C13.15 11.08 6.82 11.13 2.55 12.08C2.33 12.13 2.12 12.18 1.91 12.23C1.35 13.45 0.9 14.73 0.58 16.05C0.92 15.96 1.27 15.88 1.64 15.8C6.82 14.64 14.14 14.69 22.98 19.12C30.94 23.09 37.27 23.04 41.54 22.09C41.69 22.06 41.83 22.03 41.97 21.99C41.99 21.66 42 21.33 42 21C42 20.15 41.95 19.32 41.85 18.5ZM41.29 26.43C36.2 27.32 29.31 26.97 21.11 22.87C13.15 18.9 6.82 18.95 2.55 19.9C1.6 20.11 0.75 20.36 0 20.63C0 20.75 0 20.87 0 21C0 32.59 9.4 42 21 42C30.71 42 38.89 35.39 41.29 26.43Z" fill="#FFFFFF" fill-opacity="1.000000" fill-rule="evenodd"/>
</svg>
